<svg width="544" height="544" version="1.1" xmlns="http://www.w3.org/2000/svg" desc="Created with imagetracer.js version 1.2.5" ><path fill="rgb(0,0,0)" stroke="rgb(0,0,0)" stroke-width="1" opacity="1" d="M 0 0 L 544 0 L 544 544 L 0 544 L 0 0 Z M 361 159 L 358 160 L 357 163 L 360 216 L 358 215 Q 350 215 347 219 L 338 228 L 334 236 L 331 248 L 332 262 L 335 268 Q 339 274 348 275 Q 358 277 362 272 L 370 260 Q 373 274 383 283 L 388 282 L 391 277 L 381 258 L 374 232 L 371 179 L 368 160 Q 366 158 361 159 Z M 165 187 L 157 191 L 148 200 L 144 208 L 142 217 L 142 234 L 146 253 L 149 261 L 126 269 L 122 272 Q 121 280 126 281 L 133 280 L 153 272 L 171 311 L 178 331 L 183 337 Q 188 338 190 336 L 191 334 L 191 329 L 183 308 L 165 269 L 181 261 L 188 280 L 188 285 L 191 295 L 195 299 Q 202 300 203 296 L 203 290 L 199 274 L 201 258 L 208 252 Q 215 252 220 256 L 223 255 L 227 249 L 232 287 L 237 293 Q 244 294 245 290 L 238 244 L 234 240 L 230 241 L 226 248 L 225 247 L 222 243 L 213 240 Q 202 239 198 243 L 191 251 Q 192 253 189 252 L 187 246 L 181 246 L 175 251 L 164 256 L 160 256 L 154 234 Q 152 216 158 207 Q 161 201 168 199 L 175 201 Q 179 205 181 212 Q 181 223 175 229 L 176 235 L 181 237 L 185 236 L 192 221 Q 194 204 187 197 L 177 188 L 165 187 Z M 397 198 L 389 202 Q 383 206 382 214 Q 381 224 385 230 Q 392 238 404 243 Q 408 245 409 252 L 406 253 L 398 244 L 392 245 L 389 249 Q 388 254 391 256 Q 395 263 404 265 Q 411 267 415 264 L 418 261 L 421 252 Q 421 245 418 241 Q 410 231 399 226 L 394 221 L 395 213 L 400 209 Q 409 209 413 215 L 417 215 Q 421 214 420 207 Q 414 196 397 198 Z M 308 209 L 300 213 L 295 221 Q 294 224 291 223 L 288 226 Q 290 231 287 233 L 289 257 L 294 260 L 299 259 L 301 256 L 302 242 L 307 224 L 311 222 L 315 233 L 318 258 L 320 264 L 323 265 L 328 264 L 331 260 L 326 228 L 323 219 L 319 212 L 313 209 L 308 209 Z M 229 223 L 226 224 Q 224 226 225 232 L 230 235 L 236 234 L 238 231 L 237 225 Q 235 221 229 223 Z M 261 225 L 256 227 L 249 234 L 246 240 Q 248 245 245 247 L 246 263 L 255 280 Q 261 288 272 291 L 283 290 L 294 284 L 303 274 L 302 269 L 299 266 L 293 267 L 291 270 L 279 279 L 271 278 Q 264 274 261 267 L 270 260 Q 277 253 280 242 Q 281 235 278 233 Q 274 227 268 225 L 261 225 Z M 324 289 L 321 290 L 321 344 L 322 346 L 326 348 L 332 347 L 333 343 L 328 344 L 326 343 L 326 291 L 324 289 Z M 404 289 L 401 292 L 401 347 L 404 348 L 407 347 L 406 346 L 406 333 L 418 330 L 425 345 L 430 348 L 434 347 L 434 343 L 432 344 Q 425 338 422 329 L 425 327 Q 430 324 432 318 L 431 311 L 425 306 L 420 306 L 414 308 Q 408 310 407 317 L 406 317 L 406 293 L 407 292 L 404 289 Z M 342 292 L 339 295 Q 338 299 342 299 L 345 298 Q 348 299 346 294 Q 345 291 342 292 Z M 342 306 L 340 308 L 341 311 L 341 347 L 343 348 L 346 347 Q 348 341 345 340 L 345 308 L 342 306 Z M 357 306 L 354 307 L 355 311 L 358 310 L 359 313 L 359 347 L 361 348 L 364 347 L 363 342 L 363 326 Q 365 324 364 320 L 367 314 L 375 309 L 381 310 L 383 313 L 385 319 L 385 347 L 387 348 L 390 347 L 390 321 L 386 310 L 380 306 Q 368 306 364 314 L 362 309 L 357 306 Z M 262 307 L 259 308 L 253 316 Q 252 322 255 324 L 237 344 L 233 343 L 229 343 L 222 346 L 219 353 L 221 361 Q 224 365 230 366 L 237 364 L 240 359 L 267 364 L 270 372 L 278 376 L 286 374 Q 290 371 291 365 L 289 359 L 284 354 Q 271 352 269 360 L 242 355 L 240 349 L 259 327 L 262 329 L 270 328 L 275 322 Q 276 315 274 312 Q 272 305 262 307 Z " /><path fill="rgb(0,0,0)" stroke="rgb(0,0,0)" stroke-width="1" opacity="1" d="M 353.5 228 L 357 229.5 L 361 236.5 L 360 237.5 L 360 244.5 L 358 254.5 Q 356.8 260.3 352.5 263 Q 346.3 264.3 345 260.5 Q 342 256.5 343 248.5 L 348 234.5 L 353.5 228 Z " /><path fill="rgb(0,0,0)" stroke="rgb(0,0,0)" stroke-width="1" opacity="1" d="M 260.5 237 Q 266 236 267 239.5 L 266 244.5 L 259.5 252 Q 256.9 252.8 258 249.5 L 257 247.5 Q 259.3 246.3 258 241.5 L 260.5 237 Z " /><path fill="rgb(0,0,0)" stroke="rgb(0,0,0)" stroke-width="1" opacity="1" d="M 418.5 309 Q 424.3 308.2 426 311.5 L 427 317.5 L 422.5 324 L 406 331 Q 405.2 317.1 413.5 311 L 418.5 309 Z " /><path fill="rgb(0,0,0)" stroke="rgb(0,0,0)" stroke-width="1" opacity="1" d="M 262.5 311 Q 268.3 310.2 270 313.5 L 271 320.5 Q 269.1 325.1 261.5 324 Q 256.8 322.7 258 315.5 L 260.5 312 L 262.5 311 Z " /><path fill="rgb(0,0,0)" stroke="rgb(0,0,0)" stroke-width="1" opacity="1" d="M 227.5 348 Q 234.5 346.5 236 350.5 L 237 356.5 L 234.5 360 L 228.5 361 L 225 358.5 L 224 351.5 L 227.5 348 Z " /><path fill="rgb(0,0,0)" stroke="rgb(0,0,0)" stroke-width="1" opacity="1" d="M 277.5 358 L 281.5 358 L 286 362.5 Q 286.9 369.4 282.5 371 Q 274.5 372.5 273 367.5 Q 271.5 360.5 275.5 359 L 277.5 358 Z " /><path fill="rgb(231,73,34)" stroke="rgb(231,73,34)" stroke-width="1" opacity="1" d="M 360.5 159 Q 365.9 158.4 368 160 L 371 178.5 L 374 231.5 L 381 257.5 L 391 276.5 L 387.5 282 L 382.5 283 Q 373.3 274.2 369.5 260 L 361.5 272 Q 357.7 276.7 347.5 275 Q 339 273.5 335 267.5 Q 331.6 263.9 331.5 257 L 327.5 264 L 322.5 265 L 320 264 L 318 257.5 L 315 232.5 L 311 222 L 307 223.5 L 302 241.5 L 301 255.5 L 298.5 259 L 293.5 260 L 289 256.5 L 287 232.5 Q 289.5 231 288 225.5 L 290.5 223 Q 294.5 223.5 295 220.5 L 299.5 213 L 307.5 209 L 312.5 209 L 319 212 L 323 218.5 L 326 227.5 L 330.5 257 Q 330.6 230.1 346.5 219 Q 350.3 215.3 357.5 215 L 360 216 L 357 162.5 L 358 160 L 360.5 159 Z M 354 228 L 348 235 L 343 249 Q 342 257 345 261 Q 346 264 353 263 Q 357 260 358 255 L 360 245 L 360 238 L 361 237 L 357 230 L 354 228 Z " /><path fill="rgb(231,73,34)" stroke="rgb(231,73,34)" stroke-width="1" opacity="1" d="M 164.5 187 L 176.5 188 L 187 196.5 Q 194.3 203.7 192 220.5 L 185 236 L 180.5 237 L 176 235 L 175 228.5 Q 180.8 222.8 181 211.5 Q 179.4 204.5 174.5 201 L 167.5 199 Q 160.6 200.6 158 206.5 Q 151.9 215.9 154 233.5 L 160 256 L 163.5 256 L 174.5 251 L 180.5 246 L 186.5 246 L 189 252 Q 191.7 253.1 191 250.5 L 197.5 243 Q 202.3 238.8 212.5 240 L 221.5 243 L 225 246.5 L 225.5 248 L 229.5 241 L 233.5 240 L 238 243.5 L 245 289.5 Q 243.8 294.2 236.5 293 L 232 286.5 L 226.5 249 L 222.5 255 L 219.5 256 Q 215.2 252.3 207.5 252 L 201 257.5 L 199 273.5 L 203 289.5 L 203 295.5 Q 201.7 300.3 194.5 299 L 191 294.5 L 188 284.5 L 188 279.5 L 181 261 L 165 268.5 L 183 307.5 L 191 328.5 L 191 333.5 L 190 336 Q 187.9 337.6 182.5 337 L 178 330.5 L 171 310.5 L 152.5 272 L 132.5 280 L 125.5 281 Q 120.5 279.5 122 271.5 L 125.5 269 L 149 261 L 146 252.5 L 142 233.5 L 142 216.5 L 144 207.5 L 148 199.5 L 156.5 191 L 164.5 187 Z " /><path fill="rgb(231,73,34)" stroke="rgb(231,73,34)" stroke-width="1" opacity="1" d="M 396.5 198 Q 414.2 196.3 420 206.5 Q 421.3 213.8 416.5 215 L 412.5 215 Q 408.6 209.4 399.5 209 L 395 212.5 L 394 220.5 L 398.5 226 Q 410.3 231.2 418 240.5 Q 421 244.5 421 251.5 L 418 260.5 L 414.5 264 Q 411 266.5 403.5 265 Q 394.9 262.6 391 255.5 Q 388.2 253.8 389 248.5 L 391.5 245 L 397.5 244 L 405.5 253 L 409 251.5 Q 408.4 245.2 403.5 243 Q 392.1 238.4 385 229.5 Q 380.7 224.3 382 213.5 Q 383.5 205.9 388.5 202 L 396.5 198 Z " /><path fill="rgb(231,73,34)" stroke="rgb(231,73,34)" stroke-width="1" opacity="1" d="M 228.5 223 Q 235.3 221.3 237 224.5 L 238 230.5 L 235.5 234 L 229.5 235 L 225 231.5 Q 224.4 226.1 226 224 L 228.5 223 Z " /><path fill="rgb(231,73,34)" stroke="rgb(231,73,34)" stroke-width="1" opacity="1" d="M 260.5 225 L 267.5 225 Q 274.3 227.3 278 232.5 Q 280.6 235.4 280 241.5 Q 276.9 252.9 269.5 260 L 261 266.5 Q 264 274 270.5 278 L 278.5 279 L 291 269.5 L 292.5 267 L 298.5 266 L 302 268.5 L 303 273.5 L 293.5 284 L 282.5 290 L 271.5 291 Q 260.6 287.9 255 279.5 L 246 262.5 L 245 246.5 Q 247.5 245 246 239.5 L 249 233.5 L 255.5 227 L 260.5 225 Z M 261 237 L 258 242 Q 259 246 257 248 L 258 250 Q 257 253 260 252 L 266 245 L 267 240 Q 266 236 261 237 Z " /><path fill="rgb(231,73,34)" stroke="rgb(231,73,34)" stroke-width="1" opacity="1" d="M 323.5 289 L 326 290.5 L 326 342.5 L 327.5 344 L 333 343 L 331.5 347 L 325.5 348 L 322 345.5 L 321 343.5 L 321 290 L 323.5 289 Z " /><path fill="rgb(231,73,34)" stroke="rgb(231,73,34)" stroke-width="1" opacity="1" d="M 403.5 289 L 407 291.5 L 406 292.5 L 406 316.5 L 407 316.5 Q 408.4 310.4 413.5 308 L 419.5 306 L 424.5 306 L 431 310.5 L 432 317.5 Q 430.4 324.4 424.5 327 L 422 328.5 Q 424.7 338.3 431.5 344 L 433.5 343 L 434 347 L 429.5 348 L 425 344.5 L 418 330 L 406 333 L 406 345.5 L 407 346.5 L 403.5 348 L 401 347 L 401 291.5 L 403.5 289 Z M 419 309 L 414 311 Q 405 317 406 331 L 423 324 L 427 318 L 426 312 Q 424 308 419 309 Z " /><path fill="rgb(231,73,34)" stroke="rgb(231,73,34)" stroke-width="1" opacity="1" d="M 341.5 292 Q 345.3 291.3 346 293.5 Q 347.9 298.9 344.5 298 L 341.5 299 Q 338.5 298.5 339 294.5 L 341.5 292 Z " /><path fill="rgb(231,73,34)" stroke="rgb(231,73,34)" stroke-width="1" opacity="1" d="M 341.5 306 L 345 307.5 L 345 339.5 Q 347.5 341 346 346.5 L 342.5 348 L 341 346.5 L 341 310.5 L 340 307.5 L 341.5 306 Z " /><path fill="rgb(231,73,34)" stroke="rgb(231,73,34)" stroke-width="1" opacity="1" d="M 356.5 306 L 362 308.5 L 363.5 314 Q 367.5 306 379.5 306 L 386 309.5 L 390 320.5 L 390 346.5 L 386.5 348 L 385 346.5 L 385 318.5 L 383 312.5 L 380.5 310 L 374.5 309 L 367 313.5 L 364 319.5 Q 365.2 324.2 363 325.5 L 363 341.5 L 364 346.5 L 360.5 348 L 359 346.5 L 359 312.5 L 358 310 L 354.5 311 L 354 307 L 356.5 306 Z " /><path fill="rgb(231,73,34)" stroke="rgb(231,73,34)" stroke-width="1" opacity="1" d="M 261.5 307 Q 271.6 305.4 274 311.5 Q 276.3 314.7 275 321.5 L 269.5 328 L 261.5 329 L 258.5 327 L 240 348.5 L 242 355 L 268.5 360 Q 271.2 352.2 283.5 354 L 289 358.5 L 291 364.5 Q 290.1 371.1 285.5 374 L 277.5 376 L 270 371.5 L 266.5 364 L 240 359 L 236.5 364 L 229.5 366 Q 223.8 364.8 221 360.5 L 219 352.5 L 222 346 L 228.5 343 L 232.5 343 L 236.5 344 L 255 323.5 Q 252 321.5 253 315.5 L 258.5 308 L 261.5 307 Z M 263 311 L 261 312 L 258 316 Q 257 323 262 324 Q 269 325 271 321 L 270 314 Q 268 310 263 311 Z M 228 348 L 224 352 L 225 359 L 229 361 L 235 360 L 237 357 L 236 351 Q 235 347 228 348 Z M 278 358 L 276 359 Q 272 361 273 368 Q 275 373 283 371 Q 287 369 286 363 L 282 358 L 278 358 Z " /></svg>